<svg width="743" height="520" viewBox="0 0 743 520" fill="none" xmlns="http://www.w3.org/2000/svg">
<g clip-path="url(#clip0)">
<path opacity="0.1" d="M242.352 329.934C266.926 320.708 305.501 318.826 340.612 319.565C450.902 321.87 550.457 344.295 636.568 369.662C667.744 378.848 698.435 388.747 718.673 401.394C759.866 427.138 747.646 462.8 690.368 484.008C670.877 491.225 647.253 496.776 622.996 501.655C579.86 510.377 533.345 517.373 484.394 519.388C449.494 520.806 414.157 519.651 379.461 517.668C282.511 512.111 187.355 499.901 107.594 478.914C72.6092 469.728 39.6377 458.304 25.2355 443.433C10.8333 428.562 20.0406 409.733 55.7644 400.93C70.5467 397.294 88.201 395.648 105.496 394.109C130.95 391.838 156.812 389.593 179.781 384.977C203.51 380.206 231.603 370.979 226.908 360.422C221.847 349.093 217.806 339.147 242.352 329.934Z" fill="#3B7989"/>
<path opacity="0.1" d="M354.339 20.2471L351.657 168.757C351.657 168.757 448.741 168.757 531.339 194.36L532.951 44.2909C532.951 44.2909 400.466 14.1051 354.339 20.2471Z" fill="black"/>
<path d="M352.93 18.2311L350.249 166.741C350.249 166.741 447.333 166.741 529.931 192.344L531.543 42.2749C531.543 42.2749 399.058 12.0891 352.93 18.2311Z" fill="#F5F5FB"/>
<path opacity="0.1" d="M312.99 20.1328L315.672 168.643C315.672 168.643 218.588 168.643 135.99 194.246L134.378 44.217C134.378 44.217 266.862 13.9908 312.99 20.1328Z" fill="black"/>
<path d="M314.398 18.1169L317.08 166.627C317.08 166.627 219.995 166.627 137.398 192.23L135.786 42.201C135.786 42.201 268.27 11.9749 314.398 18.1169Z" fill="#F5F5FB"/>
<path opacity="0.1" d="M556.384 65.4653V212.423C556.384 212.423 588.061 208.841 654.539 287.182L660.444 140.224C660.444 140.224 591.249 69.0538 556.384 65.4653Z" fill="black"/>
<path d="M554.977 64.1214V211.079C554.977 211.079 586.653 207.497 653.131 285.838L659.037 138.88C659.037 138.88 589.842 67.7098 554.977 64.1214Z" fill="#F5F5FB"/>
<path opacity="0.1" d="M112.669 69.8266V216.791C112.669 216.791 80.9926 213.209 14.5146 291.55L8.61572 144.592C8.61572 144.592 77.8039 73.4217 112.669 69.8266Z" fill="black"/>
<path d="M114.077 67.8106V214.775C114.077 214.775 82.4008 211.193 15.9228 289.534L10.0239 142.576C10.0239 142.576 79.2121 71.4058 114.077 67.8106Z" fill="#F5F5FB"/>
<path d="M470.26 315.621C470.26 320.627 436.957 349.556 361.152 349.556C285.347 349.556 244.302 321.635 244.302 316.629C244.302 311.622 286.755 324.021 362.56 324.021C438.365 324.021 470.26 310.608 470.26 315.621Z" fill="#F7F7FD"/>
<path opacity="0.1" d="M222.516 246.668C226.971 246.668 230.583 246.195 230.583 245.613C230.583 245.03 226.971 244.558 222.516 244.558C218.06 244.558 214.449 245.03 214.449 245.613C214.449 246.195 218.06 246.668 222.516 246.668Z" fill="#3B7989"/>
<path opacity="0.1" d="M191.621 249.658C196.076 249.658 199.687 249.186 199.687 248.603C199.687 248.02 196.076 247.548 191.621 247.548C187.165 247.548 183.554 248.02 183.554 248.603C183.554 249.186 187.165 249.658 191.621 249.658Z" fill="#3B7989"/>
<path opacity="0.1" d="M155.242 245.613C159.697 245.613 163.309 245.14 163.309 244.558C163.309 243.975 159.697 243.503 155.242 243.503C150.787 243.503 147.175 243.975 147.175 244.558C147.175 245.14 150.787 245.613 155.242 245.613Z" fill="#3B7989"/>
<path opacity="0.1" d="M203.989 257.87C207.153 257.87 209.719 257.533 209.719 257.117C209.719 256.701 207.153 256.365 203.989 256.365C200.824 256.365 198.259 256.701 198.259 257.117C198.259 257.533 200.824 257.87 203.989 257.87Z" fill="#3B7989"/>
<path opacity="0.1" d="M171.925 257.117C175.09 257.117 177.655 256.78 177.655 256.365C177.655 255.949 175.09 255.612 171.925 255.612C168.761 255.612 166.195 255.949 166.195 256.365C166.195 256.78 168.761 257.117 171.925 257.117Z" fill="#3B7989"/>
<path d="M191.452 248.368C191.452 248.368 202.757 212.974 189.678 198.802C179.893 188.198 168.772 189.441 163.844 190.785C162.557 191.112 161.36 191.702 160.335 192.514C159.311 193.326 158.483 194.341 157.91 195.489C156.171 199.071 156.502 204.897 168.765 211.67C189.312 223.027 190.586 238.611 190.586 238.611L191.452 248.368Z" fill="#3B7989"/>
<path d="M165.59 195.798C165.59 195.798 198.927 205.75 191.452 248.368" stroke="#565987" stroke-miterlimit="10"/>
<path d="M185.06 199.366C185.06 199.366 180.471 202.316 181.928 206.758" stroke="#565987" stroke-miterlimit="10"/>
<path d="M168.933 201.994C168.933 201.994 171.749 199.265 175.149 200.771" stroke="#565987" stroke-miterlimit="10"/>
<path d="M182.146 215.696C182.146 215.696 187.073 213.31 188.348 216.3" stroke="#565987" stroke-miterlimit="10"/>
<path d="M194.303 220.675C194.303 220.675 190.6 220.393 190.537 222.08" stroke="#565987" stroke-miterlimit="10"/>
<path d="M191.909 248.65C191.909 248.65 178.661 222.926 175.015 223.491C173.29 223.76 172.495 225.379 172.129 227.012C171.676 229.119 171.922 231.308 172.833 233.275C174.74 237.388 179.788 245.216 191.909 248.65Z" fill="#3B7989"/>
<path d="M175.107 228.369C175.107 228.369 189.009 247.615 191.698 248.462" stroke="#565987" stroke-miterlimit="10"/>
<path d="M173.847 231.373H177.092" stroke="#565987" stroke-miterlimit="10"/>
<path d="M177.732 238.416L182.815 238.624" stroke="#565987" stroke-miterlimit="10"/>
<path d="M180.83 232.784L180.273 235.311" stroke="#565987" stroke-miterlimit="10"/>
<path d="M186.235 240.479L186.137 242.777" stroke="#565987" stroke-miterlimit="10"/>
<path d="M191.515 248.65C191.515 248.65 204.756 222.926 208.409 223.491C210.141 223.76 210.936 225.379 211.295 227.012C211.745 229.119 211.499 231.307 210.591 233.275C208.684 237.388 203.637 245.216 191.515 248.65Z" fill="#3B7989"/>
<path d="M208.297 228.369C208.297 228.369 194.394 247.615 191.712 248.462" stroke="#565987" stroke-miterlimit="10"/>
<path d="M209.578 231.373H206.333" stroke="#565987" stroke-miterlimit="10"/>
<path d="M205.692 238.416L200.603 238.624" stroke="#565987" stroke-miterlimit="10"/>
<path d="M202.595 232.784L203.151 235.311" stroke="#565987" stroke-miterlimit="10"/>
<path d="M197.189 240.479L197.287 242.777" stroke="#565987" stroke-miterlimit="10"/>
<path d="M168.771 254.658C168.41 254.376 168.148 253.997 168.018 253.569C167.959 253.355 167.979 253.129 168.075 252.928C168.172 252.727 168.338 252.564 168.546 252.467C169.025 252.286 169.546 252.608 169.954 252.931C170.121 253.119 170.328 253.272 170.561 253.379C170.793 253.487 171.047 253.547 171.306 253.556C171.042 253.327 170.844 253.038 170.732 252.715C170.62 252.393 170.597 252.048 170.665 251.714C170.692 251.576 170.755 251.447 170.848 251.338C171.115 251.063 171.601 251.183 171.925 251.399C172.946 252.071 173.227 253.414 173.234 254.604C173.289 254.157 173.289 253.706 173.234 253.26C173.213 253.039 173.25 252.817 173.341 252.613C173.432 252.409 173.574 252.229 173.755 252.091C173.997 251.966 174.269 251.904 174.544 251.909C174.772 251.878 175.005 251.893 175.227 251.953C175.448 252.014 175.655 252.118 175.832 252.259C176 252.48 176.086 252.749 176.078 253.023C176.069 253.296 175.965 253.559 175.782 253.771C175.403 254.179 174.953 254.522 174.452 254.785C174.069 255 173.744 255.297 173.502 255.652C173.471 255.7 173.447 255.752 173.431 255.807H170.545C169.905 255.498 169.309 255.112 168.771 254.658Z" fill="#3B7989"/>
<path d="M219.243 244.296C218.882 244.017 218.619 243.639 218.489 243.214C218.43 242.999 218.45 242.771 218.546 242.569C218.642 242.367 218.809 242.203 219.017 242.105C219.275 242.057 219.541 242.075 219.788 242.158C220.035 242.241 220.255 242.385 220.425 242.575C220.592 242.764 220.798 242.917 221.031 243.023C221.264 243.13 221.518 243.188 221.777 243.194C221.512 242.966 221.315 242.676 221.202 242.353C221.09 242.031 221.067 241.686 221.136 241.352C221.16 241.215 221.224 241.087 221.319 240.983C221.587 240.707 222.072 240.821 222.396 241.036C223.417 241.708 223.698 243.052 223.705 244.249C223.76 243.802 223.76 243.351 223.705 242.905C223.684 242.684 223.721 242.461 223.812 242.257C223.903 242.053 224.045 241.874 224.226 241.735C224.468 241.61 224.74 241.549 225.015 241.561C225.243 241.528 225.476 241.542 225.698 241.602C225.921 241.662 226.127 241.767 226.303 241.91C226.472 242.13 226.559 242.398 226.55 242.671C226.541 242.944 226.436 243.206 226.254 243.415C225.874 243.823 225.424 244.166 224.923 244.43C224.542 244.647 224.217 244.943 223.973 245.297C223.942 245.345 223.919 245.397 223.902 245.451H221.016C220.374 245.143 219.778 244.754 219.243 244.296Z" fill="#3B7989"/>
<path d="M202.419 254.658C202.058 254.376 201.795 253.997 201.665 253.569C201.607 253.355 201.628 253.129 201.724 252.929C201.821 252.728 201.986 252.565 202.193 252.467C202.679 252.286 203.193 252.608 203.601 252.931C203.769 253.119 203.976 253.271 204.208 253.379C204.441 253.486 204.694 253.547 204.953 253.556C204.69 253.327 204.493 253.037 204.382 252.715C204.271 252.392 204.249 252.047 204.319 251.714C204.341 251.576 204.402 251.446 204.495 251.338C204.763 251.063 205.248 251.183 205.572 251.399C206.593 252.071 206.881 253.414 206.888 254.604C206.94 254.157 206.94 253.707 206.888 253.26C206.868 253.039 206.904 252.817 206.995 252.613C207.086 252.409 207.228 252.229 207.409 252.091C207.741 251.945 208.107 251.884 208.471 251.913C208.835 251.943 209.185 252.062 209.486 252.259C209.657 252.479 209.744 252.749 209.736 253.023C209.727 253.297 209.621 253.56 209.437 253.771C209.058 254.18 208.608 254.523 208.106 254.785C207.726 255.004 207.402 255.3 207.156 255.652C207.128 255.702 207.105 255.754 207.086 255.807H204.207C203.56 255.5 202.959 255.114 202.419 254.658Z" fill="#3B7989"/>
<path d="M154.693 233.718C154.693 233.718 153.616 235.062 155.193 237.078C156.77 239.094 158.079 240.835 157.551 242.105C157.551 242.105 155.165 238.322 153.229 238.268C151.293 238.214 152.582 235.99 154.693 233.718Z" fill="#3B7989"/>
<path opacity="0.1" d="M154.693 233.718C154.599 233.848 154.525 233.991 154.475 234.142C152.581 236.259 151.575 238.241 153.391 238.288C155.087 238.335 157.122 241.231 157.614 241.957C157.6 242.014 157.581 242.07 157.558 242.125C157.558 242.125 155.172 238.342 153.236 238.288C151.3 238.234 152.581 235.99 154.693 233.718Z" fill="black"/>
<path d="M152.708 235.432C152.708 235.909 152.764 236.292 152.834 236.292C152.904 236.292 152.953 235.909 152.953 235.432C152.953 234.955 152.89 235.183 152.82 235.183C152.75 235.183 152.708 234.962 152.708 235.432Z" fill="#FFD037"/>
<path d="M152.018 236.003C152.455 236.232 152.835 236.366 152.87 236.306C152.905 236.245 152.574 236.017 152.166 235.795C151.758 235.573 151.898 235.728 151.87 235.795C151.842 235.862 151.582 235.808 152.018 236.003Z" fill="#FFD037"/>
<path d="M160.423 233.718C160.423 233.718 161.507 235.062 159.923 237.078C158.339 239.094 157.044 240.835 157.572 242.105C157.572 242.105 159.951 238.322 161.894 238.268C163.837 238.214 162.556 235.99 160.423 233.718Z" fill="#3B7989"/>
<path opacity="0.1" d="M160.423 233.718C160.517 233.848 160.591 233.991 160.641 234.142C162.534 236.259 163.541 238.241 161.725 238.288C160.029 238.335 158.001 241.231 157.501 241.957C157.516 242.014 157.535 242.07 157.558 242.125C157.558 242.125 159.937 238.342 161.88 238.288C163.823 238.234 162.556 235.99 160.423 233.718Z" fill="black"/>
<path d="M162.435 235.432C162.435 235.909 162.386 236.292 162.316 236.292C162.246 236.292 162.19 235.909 162.19 235.432C162.19 234.955 162.26 235.183 162.33 235.183C162.4 235.183 162.435 234.962 162.435 235.432Z" fill="#FFD037"/>
<path d="M163.14 236.003C162.704 236.232 162.324 236.366 162.296 236.306C162.268 236.245 162.584 236.017 163 235.795C163.415 235.573 163.267 235.728 163.302 235.795C163.337 235.862 163.556 235.808 163.14 236.003Z" fill="#FFD037"/>
<path d="M162.091 241.95C162.091 241.95 159.065 241.863 158.157 241.245C157.248 240.627 153.511 239.901 153.285 240.875C153.06 241.85 148.745 245.814 152.152 245.841C155.559 245.868 160.078 245.33 160.986 244.806C161.894 244.282 162.091 241.95 162.091 241.95Z" fill="#A8A8A8"/>
<path opacity="0.2" d="M152.095 245.492C155.502 245.492 160.022 244.988 160.93 244.457C161.634 244.054 161.894 242.609 161.986 241.944H162.091C162.091 241.944 161.894 244.269 160.986 244.8C160.078 245.33 155.566 245.861 152.152 245.834C151.173 245.834 150.828 245.492 150.85 244.994C150.983 245.304 151.363 245.485 152.095 245.492Z" fill="black"/>
<path opacity="0.1" d="M137.383 337.017C150.881 337.017 161.823 335.473 161.823 333.57C161.823 331.666 150.881 330.122 137.383 330.122C123.886 330.122 112.943 331.666 112.943 333.57C112.943 335.473 123.886 337.017 137.383 337.017Z" fill="#3B7989"/>
<path opacity="0.1" d="M205.65 365.563C219.147 365.563 230.09 364.02 230.09 362.116C230.09 360.212 219.147 358.668 205.65 358.668C192.152 358.668 181.209 360.212 181.209 362.116C181.209 364.02 192.152 365.563 205.65 365.563Z" fill="#3B7989"/>
<path opacity="0.1" d="M105.229 398.04C118.726 398.04 129.669 396.497 129.669 394.593C129.669 392.689 118.726 391.146 105.229 391.146C91.7308 391.146 80.7886 392.689 80.7886 394.593C80.7886 396.497 91.7308 398.04 105.229 398.04Z" fill="#3B7989"/>
<path opacity="0.1" d="M623.067 469.379C636.564 469.379 647.507 467.835 647.507 465.932C647.507 464.028 636.564 462.484 623.067 462.484C609.569 462.484 598.626 464.028 598.626 465.932C598.626 467.835 609.569 469.379 623.067 469.379Z" fill="#3B7989"/>
<path opacity="0.1" d="M345.687 388.337C354.625 388.337 361.87 387.564 361.87 386.61C361.87 385.656 354.625 384.883 345.687 384.883C336.749 384.883 329.504 385.656 329.504 386.61C329.504 387.564 336.749 388.337 345.687 388.337Z" fill="#3B7989"/>
<path opacity="0.1" d="M577.276 299.634C586.214 299.634 593.459 298.861 593.459 297.907C593.459 296.953 586.214 296.18 577.276 296.18C568.339 296.18 561.093 296.953 561.093 297.907C561.093 298.861 568.339 299.634 577.276 299.634Z" fill="#3B7989"/>
<path opacity="0.1" d="M451.268 430.672C460.206 430.672 467.451 429.899 467.451 428.945C467.451 427.991 460.206 427.218 451.268 427.218C442.33 427.218 435.085 427.991 435.085 428.945C435.085 429.899 442.33 430.672 451.268 430.672Z" fill="#3B7989"/>
<path opacity="0.1" d="M311.583 419.275C320.52 419.275 327.766 418.502 327.766 417.548C327.766 416.594 320.52 415.821 311.583 415.821C302.645 415.821 295.399 416.594 295.399 417.548C295.399 418.502 302.645 419.275 311.583 419.275Z" fill="#3B7989"/>
<path opacity="0.1" d="M180.675 414.793C189.612 414.793 196.858 414.02 196.858 413.066C196.858 412.112 189.612 411.339 180.675 411.339C171.737 411.339 164.492 412.112 164.492 413.066C164.492 414.02 171.737 414.793 180.675 414.793Z" fill="#3B7989"/>
<path opacity="0.1" d="M146.563 445.732C155.501 445.732 162.746 444.958 162.746 444.005C162.746 443.051 155.501 442.277 146.563 442.277C137.625 442.277 130.38 443.051 130.38 444.005C130.38 444.958 137.625 445.732 146.563 445.732Z" fill="#3B7989"/>
<g opacity="0.1">
<path opacity="0.1" d="M358.154 206.563C417.292 206.563 465.234 186.138 465.234 160.942C465.234 135.746 417.292 115.32 358.154 115.32C299.015 115.32 251.074 135.746 251.074 160.942C251.074 186.138 299.015 206.563 358.154 206.563Z" fill="black"/>
<path opacity="0.1" d="M467.092 177.251C462.355 201.04 415.544 219.714 358.485 219.714C300.925 219.714 253.791 200.71 249.75 176.633H249.349V215.4C268.172 234.175 309.844 247.232 358.217 247.232C406.59 247.232 448.262 234.175 467.092 215.4V177.251Z" fill="black"/>
<path opacity="0.1" d="M467.092 224.425C462.355 248.207 415.544 266.888 358.485 266.888C300.925 266.888 253.791 247.884 249.75 223.8H249.349V262.574C268.172 281.349 309.844 294.399 358.217 294.399C406.59 294.399 448.262 281.349 467.092 262.574V224.425Z" fill="black"/>
<path opacity="0.1" d="M467.092 276.309C462.355 300.098 415.544 318.772 358.485 318.772C300.925 318.772 253.791 299.775 249.75 275.691H249.349V317.502C249.347 318.393 249.539 319.275 249.912 320.091C250.285 320.908 250.832 321.642 251.517 322.247C271.227 339.523 311.625 346.29 358.217 346.29C404.81 346.29 445.186 339.523 464.924 322.247C465.609 321.642 466.156 320.908 466.529 320.091C466.902 319.275 467.094 318.393 467.092 317.502V276.309Z" fill="black"/>
</g>
<path d="M358.154 203.875C417.292 203.875 465.234 183.45 465.234 158.254C465.234 133.058 417.292 112.632 358.154 112.632C299.015 112.632 251.074 133.058 251.074 158.254C251.074 183.45 299.015 203.875 358.154 203.875Z" fill="#3B7989"/>
<path d="M467.092 174.563C462.355 198.352 415.544 217.026 358.485 217.026C300.925 217.026 253.791 198.022 249.75 173.945H249.349V212.712C268.172 231.487 309.844 244.544 358.217 244.544C406.59 244.544 448.262 231.487 467.092 212.712V174.563Z" fill="#3B7989"/>
<path d="M467.092 221.737C462.355 245.519 415.544 264.2 358.485 264.2C300.925 264.2 253.791 245.196 249.75 221.112H249.349V259.886C268.172 278.661 309.844 291.711 358.217 291.711C406.59 291.711 448.262 278.661 467.092 259.886V221.737Z" fill="#3B7989"/>
<path d="M467.092 273.621C462.355 297.41 415.544 316.084 358.485 316.084C300.925 316.084 253.791 297.087 249.75 273.003H249.349V314.814C249.347 315.705 249.539 316.587 249.912 317.403C250.285 318.22 250.832 318.954 251.517 319.559C271.227 336.835 311.625 343.602 358.217 343.602C404.81 343.602 445.186 336.835 464.924 319.559C465.609 318.954 466.156 318.22 466.529 317.403C466.902 316.587 467.094 315.705 467.092 314.814V273.621Z" fill="#3B7989"/>
<path opacity="0.1" d="M515.993 390.769C538.153 390.769 556.117 387.683 556.117 383.875C556.117 380.067 538.153 376.98 515.993 376.98C493.834 376.98 475.87 380.067 475.87 383.875C475.87 387.683 493.834 390.769 515.993 390.769Z" fill="#3B7989"/>
<path d="M493.468 296.025C495.495 297.168 498.677 297.914 502.682 295.454L502.647 300.904C502.928 304.64 507.771 318.262 507.771 318.262L511.185 329.464C513.636 337.38 514.899 345.589 514.937 353.844C514.937 356.572 515.205 359.394 516.028 361.518C517.851 366.222 515.324 372.27 514.219 374.501C512.371 375.097 510.491 375.602 508.588 376.013C508.418 376.052 508.251 376.101 508.088 376.16V376.127C508.088 376.127 502.964 378.069 500.683 377.8C498.986 377.605 497.924 379.628 499.275 381.113C498.172 381.434 497.021 381.58 495.868 381.543C493.587 381.274 492.447 385.01 496.72 386.079C500.993 387.147 525.2 386.079 525.2 386.079C525.88 385.754 526.427 385.222 526.756 384.568C527.085 383.913 527.177 383.173 527.016 382.464L530.043 382.343C530.043 382.343 534.316 380.475 530.043 375.401L529.811 375.562L528.903 372.995V369.535C528.903 369.535 534.316 344.671 532.606 341.761C530.895 338.851 529.987 323.839 529.987 323.839L530.585 307.577C532.127 304.54 532.915 299.768 533.317 296.039C533.9 294.262 534.266 292.426 534.408 290.569C534.478 289.689 534.534 288.775 534.569 287.82C534.593 285.727 534.241 283.645 533.528 281.665C535.46 278.929 537.618 276.345 539.983 273.937C540.966 273.064 541.713 271.976 542.161 270.768C542.608 269.559 542.742 268.265 542.552 266.995L541.144 257.917L537.723 242.461C538.152 238.167 537.216 235.694 536.174 234.296C536.421 232.905 536.653 231.521 536.829 230.123C537.582 224.065 537.244 217.929 535.829 211.98C535.337 209.91 534.661 207.78 533.133 206.207C531.409 204.42 528.607 203.338 527.96 201.006C527.868 200.412 527.737 199.823 527.566 199.245C526.939 197.72 524.968 197.162 523.236 196.961C520.153 196.604 515.697 196.336 512.734 197.491C510.133 198.589 507.992 200.486 506.652 202.881C505.985 203.865 505.733 205.053 505.948 206.207C506.054 206.608 506.217 206.992 506.434 207.35C505.447 209.903 505.555 212.724 506.733 215.202C507.911 217.68 510.064 219.615 512.727 220.588C512.797 220.796 512.861 220.998 512.91 221.193C513.04 221.672 513.134 222.159 513.191 222.651C513.135 223.592 513.072 224.539 513.03 225.487L512.924 225.87C510.473 226.905 508.084 228.067 505.765 229.351C507.469 231.756 505.477 241.903 505.477 241.903C501.204 244.302 496.938 250.444 501.492 256.855C506.047 263.266 503.484 270.201 503.484 270.201L502.781 280.644L502.64 282.733H502.689L502.64 283.526H502.759V284.38C500.76 285.085 497.832 286.497 496.093 289.117C495.27 290.402 494.268 291.576 493.116 292.605C492.847 292.824 492.638 293.102 492.506 293.415C492.374 293.728 492.324 294.067 492.358 294.403C492.393 294.739 492.512 295.061 492.705 295.344C492.898 295.626 493.16 295.86 493.468 296.025ZM527.854 268.286C527.682 266.478 528.033 264.661 528.868 263.031H530.881C530.94 263.456 531.023 263.877 531.127 264.294C531.705 266.68 529.396 267.802 527.854 268.286Z" fill="url(#paint0_linear)"/>
<path d="M528.417 371.772L529.516 374.91L525.954 378.311L514.17 380.958L505.674 380.172L506.223 377.296C506.385 376.677 506.722 376.113 507.197 375.665C507.673 375.217 508.269 374.902 508.919 374.756C512.438 373.976 519.069 372.189 520.47 369.709L528.417 371.772Z" fill="#DB8B8B"/>
<path opacity="0.1" d="M528.417 371.772L529.516 374.91L525.954 378.311L514.17 380.958L505.674 380.172L506.223 377.296C506.385 376.677 506.722 376.113 507.197 375.665C507.673 375.217 508.269 374.902 508.919 374.756C512.438 373.976 519.069 372.189 520.47 369.709L528.417 371.772Z" fill="black"/>
<path d="M508.412 379.359L510.059 377.269L508.412 374.843C508.412 374.843 503.485 376.745 501.288 376.483C499.092 376.221 498.001 379.883 502.112 380.931C506.223 381.98 529.515 380.931 529.515 380.931C529.515 380.931 533.626 379.097 529.515 374.124L525.954 376.745C525.954 376.745 519.921 379.883 516.908 379.359H508.412Z" fill="#C17174"/>
<path d="M501.021 383.808L509.517 384.594L521.301 381.973L524.863 378.573L524.574 377.746L524.166 376.577L523.765 375.435L515.803 373.345C515.399 373.971 514.847 374.498 514.191 374.884C511.608 376.57 506.976 377.787 504.252 378.391C504.137 378.418 504.024 378.452 503.914 378.492C503.384 378.653 502.902 378.932 502.506 379.305C502.031 379.751 501.694 380.314 501.535 380.931L501.021 383.808Z" fill="#DB8B8B"/>
<path opacity="0.1" d="M501.021 383.808L509.517 384.594L521.301 381.973L524.863 378.573L524.574 377.746L521.301 380.145C521.301 380.145 515.268 383.283 512.256 382.759H503.752L505.399 380.669L503.921 378.492C503.391 378.653 502.909 378.932 502.513 379.305C502.038 379.751 501.701 380.314 501.542 380.931L501.021 383.808Z" fill="black"/>
<path d="M503.752 383.021L505.399 380.931L503.752 378.506C503.752 378.506 498.824 380.407 496.628 380.145C494.432 379.883 493.341 383.545 497.452 384.594C501.563 385.642 524.855 384.594 524.855 384.594C524.855 384.594 528.966 382.759 524.855 377.793L521.294 380.407C521.294 380.407 515.261 383.546 512.248 383.021H503.752Z" fill="#C17174"/>
<path d="M510.601 231.286C510.601 231.286 523.757 232.63 521.864 227.361C521.323 225.878 521.182 224.287 521.455 222.738C521.794 220.82 522.589 219.002 523.778 217.423L511.446 219.25C512.187 220.43 512.751 221.704 513.121 223.034C514.564 228.584 510.601 231.286 510.601 231.286Z" fill="#DB8B8B"/>
<path d="M533.077 290.912C533.077 290.912 532.803 302.161 530.065 307.658L529.516 323.617C529.516 323.617 530.332 338.267 531.979 341.143C533.627 344.019 528.418 368.352 528.418 368.352V372.538C528.418 372.538 519.647 375.677 517.155 372.014L519.619 340.881L518.52 297.719L533.077 290.912Z" fill="#474463"/>
<path opacity="0.1" d="M533.077 290.912C533.077 290.912 532.803 302.161 530.065 307.658L529.516 323.617C529.516 323.617 530.332 338.267 531.979 341.143C533.627 344.019 528.418 368.352 528.418 368.352V372.538C528.418 372.538 519.647 375.677 517.155 372.014L519.619 340.881L518.52 297.719L533.077 290.912Z" fill="black"/>
<path d="M538.554 254.832L540.201 259.019L541.609 267.909C541.792 269.15 541.664 270.414 541.234 271.598C540.804 272.781 540.086 273.85 539.138 274.717C535.851 277.855 531.465 284.393 531.465 284.393L526.263 269.482C526.263 269.482 531.465 268.696 530.642 265.295C529.818 261.895 530.1 255.619 530.1 255.619L538.554 254.832Z" fill="#FF748E"/>
<path opacity="0.05" d="M538.617 254.772L540.258 258.958L541.665 267.856C541.851 269.094 541.725 270.358 541.296 271.541C540.868 272.724 540.15 273.792 539.202 274.656C535.907 277.794 531.529 284.34 531.529 284.34L526.285 269.408C526.285 269.408 531.494 268.622 530.67 265.221C529.847 261.821 530.121 255.538 530.121 255.538L538.617 254.772Z" fill="black"/>
<path opacity="0.1" d="M514.198 374.91C517.718 380.192 523.187 377.195 524.159 376.604L523.758 375.461L515.803 373.345C515.405 373.98 514.855 374.516 514.198 374.91Z" fill="black"/>
<path d="M503.203 301.139C503.478 304.802 508.131 318.141 508.131 318.141L511.418 329.121C513.77 336.885 514.985 344.922 515.029 353.004C514.946 355.548 515.301 358.088 516.078 360.523C518.274 366.282 513.889 374.124 513.889 374.124C517.725 380.669 524.3 376.221 524.3 376.221V372.034C524.3 372.034 529.509 349.274 528.136 344.825C526.763 340.377 526.221 328.348 526.221 328.348V306.629C530.609 302.454 533.278 296.911 533.739 291.012C533.803 290.152 533.859 289.252 533.894 288.324C534.112 282.424 529.882 275.503 528.263 273.037C527.869 272.439 527.615 272.103 527.615 272.103L503.421 281.269H503.365V282.176V284.151L503.203 301.139Z" fill="#474463"/>
<path opacity="0.1" d="M511.425 219.25C512.166 220.43 512.73 221.704 513.1 223.034C514.439 223.519 515.867 223.743 517.299 223.692C518.73 223.641 520.137 223.317 521.434 222.738C521.773 220.82 522.568 219.002 523.757 217.423L511.425 219.25Z" fill="black"/>
<path d="M516.909 223.175C522.81 223.175 527.594 218.608 527.594 212.974C527.594 207.34 522.81 202.773 516.909 202.773C511.007 202.773 506.223 207.34 506.223 212.974C506.223 218.608 511.007 223.175 516.909 223.175Z" fill="#DB8B8B"/>
<path opacity="0.1" d="M503.203 284.131H503.323C514.811 286.389 529.241 274.959 529.241 274.959C528.854 274.335 528.52 273.684 528.242 273.01C527.847 272.412 527.594 272.076 527.594 272.076L503.4 281.242L503.337 282.156L503.203 284.131Z" fill="black"/>
<path d="M506.223 231.024C506.223 231.024 521.568 222.127 526.496 225.789L533.352 234.162C533.352 234.162 537.737 235.472 536.921 243.872L540.208 259.046L530.353 261.398C530.353 261.398 524.602 266.633 529.262 274.219C529.262 274.219 514.733 285.731 503.217 283.372L504.041 271.081C504.041 271.081 506.504 264.274 502.126 257.997C497.748 251.721 501.852 245.7 505.962 243.348C505.948 243.321 507.863 233.376 506.223 231.024Z" fill="#FF748E"/>
<path d="M505.399 284.393C505.399 284.393 499.641 285.442 496.903 289.628C496.111 290.886 495.145 292.037 494.031 293.048C493.781 293.266 493.588 293.536 493.466 293.837C493.345 294.139 493.299 294.463 493.333 294.784C493.366 295.106 493.478 295.415 493.659 295.688C493.84 295.96 494.086 296.189 494.376 296.355C496.551 297.605 500.092 298.371 504.576 294.856C512.284 288.842 505.399 284.393 505.399 284.393Z" fill="#DB8B8B"/>
<path opacity="0.1" d="M513.896 235.996C513.896 235.996 519.372 235.472 520.745 249.073C522.117 262.674 524.307 265.819 524.307 265.819C524.307 265.819 525.679 272.882 522.385 277.069C519.091 281.255 512.797 290.152 512.797 290.152C512.797 290.152 505.948 291.98 504.576 285.448L513.072 270.275C513.072 270.275 514.438 265.04 511.15 261.378C507.863 257.715 505.399 233.376 513.896 235.996Z" fill="black"/>
<path d="M513.347 235.21C513.347 235.21 518.823 234.686 520.196 248.294C521.568 261.902 523.758 265.033 523.758 265.033C523.758 265.033 525.165 272.096 521.843 276.282C518.52 280.469 512.284 289.366 512.284 289.366C512.284 289.366 505.435 291.194 504.062 284.662L512.558 269.489C512.558 269.489 513.931 264.254 510.637 260.591C507.342 256.929 504.85 232.596 513.347 235.21Z" fill="#FF748E"/>
<path opacity="0.1" d="M508.821 245.021C508.821 245.021 508.279 253.132 510.742 257.581C513.206 262.029 513.206 267.782 510.742 270.92" fill="black"/>
<path opacity="0.1" d="M507.455 235.076C507.455 235.076 509.644 232.986 515.951 232.724C522.258 232.462 524.989 230.634 524.989 230.634" fill="black"/>
<path opacity="0.1" d="M522.695 199.79C524.363 199.984 526.263 200.529 526.862 202.021C527.027 202.588 527.156 203.165 527.249 203.748C527.868 206.032 530.564 207.108 532.226 208.841C533.69 210.387 534.337 212.47 534.816 214.506C536.181 220.337 536.507 226.346 535.78 232.28C535.245 236.615 534.147 240.889 533.845 245.243C533.542 249.598 534.098 254.187 536.59 257.85C537.667 259.422 539.082 260.806 539.842 262.554C538.272 263.77 536.104 263.945 534.077 264.012C531.731 264.088 529.372 264.088 527.003 264.012C525.762 264.059 524.529 263.812 523.413 263.293C522.623 262.813 521.974 262.149 521.526 261.364C520.175 259.18 519.837 256.553 519.893 254.019C519.949 251.486 520.372 248.966 520.421 246.426C520.561 245.04 520.238 243.648 519.499 242.448C518.819 241.693 518.048 241.016 517.204 240.432C514.269 237.945 513.262 233.967 513.164 230.224C513.065 226.481 513.713 222.738 513.382 219.009C513.255 217.55 512.678 215.796 511.179 215.514C510.705 215.496 510.234 215.437 509.771 215.339C508.567 214.896 508.687 213.276 508.363 212.087C507.976 210.743 506.779 209.715 506.441 208.371C505.653 205.206 509.876 201.423 512.643 200.307C515.409 199.192 519.731 199.44 522.695 199.79Z" fill="black"/>
<path d="M522.969 199.265C524.637 199.46 526.538 200.005 527.136 201.503C527.302 202.069 527.431 202.643 527.523 203.223C528.143 205.508 530.839 206.583 532.5 208.317C533.964 209.863 534.612 211.946 535.09 213.982C536.455 219.82 536.779 225.836 536.048 231.776C535.52 236.111 534.422 240.385 534.119 244.746C533.816 249.107 534.372 253.683 536.864 257.346C537.941 258.925 539.356 260.302 540.116 262.05C538.547 263.273 536.379 263.441 534.351 263.508C532.005 263.579 529.647 263.579 527.277 263.508C526.037 263.557 524.804 263.313 523.687 262.795C522.897 262.313 522.248 261.647 521.801 260.86C520.449 258.676 520.111 256.049 520.167 253.515C520.224 250.982 520.646 248.462 520.695 245.929C520.695 244.544 520.611 243.079 519.773 241.95C519.095 241.194 518.324 240.517 517.478 239.934C514.543 237.448 513.537 233.47 513.438 229.727C513.339 225.984 513.987 222.241 513.656 218.511C513.529 217.053 512.952 215.299 511.453 215.017C510.979 214.999 510.508 214.94 510.045 214.842C508.841 214.399 508.961 212.779 508.637 211.59C508.25 210.246 507.053 209.224 506.716 207.874C505.927 204.709 510.151 200.925 512.917 199.81C515.683 198.694 520.027 198.916 522.969 199.265Z" fill="#464353"/>
<path d="M90.1294 384.896C90.1294 384.896 97.6754 384.674 99.942 383.129C102.209 381.583 111.543 379.735 112.106 382.215C112.669 384.695 123.439 394.539 114.921 394.606C106.404 394.674 95.1413 393.336 92.8676 392.019C90.594 390.702 90.1294 384.896 90.1294 384.896Z" fill="#A8A8A8"/>
<path opacity="0.2" d="M115.076 393.726C106.566 393.793 95.2962 392.463 93.0295 391.146C91.3049 390.138 90.6151 386.536 90.3828 384.869H90.1294C90.1294 384.869 90.6081 390.675 92.8747 391.992C95.1413 393.31 106.411 394.64 114.928 394.58C117.385 394.58 118.23 393.726 118.188 392.49C117.843 393.262 116.906 393.726 115.076 393.726Z" fill="black"/>
<path d="M569.421 290.381C569.421 290.381 574.595 290.226 576.157 289.164C577.72 288.103 584.119 286.839 584.506 288.539C584.893 290.24 592.291 297 586.442 297.047C580.592 297.094 572.863 296.173 571.307 295.273C569.752 294.372 569.421 290.381 569.421 290.381Z" fill="#A8A8A8"/>
<path opacity="0.2" d="M586.547 296.455C580.705 296.496 572.969 295.582 571.413 294.681C570.223 294.009 569.752 291.516 569.597 290.374H569.421C569.421 290.374 569.752 294.359 571.307 295.266C572.863 296.173 580.599 297.08 586.442 297.04C588.131 297.04 588.715 296.455 588.68 295.602C588.448 296.126 587.807 296.442 586.547 296.455Z" fill="black"/>
<path opacity="0.1" d="M22.0256 29.0703C30.4345 29.0703 37.2513 22.5627 37.2513 14.5352C37.2513 6.50761 30.4345 0 22.0256 0C13.6166 0 6.7998 6.50761 6.7998 14.5352C6.7998 22.5627 13.6166 29.0703 22.0256 29.0703Z" fill="#3B7989"/>
<path opacity="0.1" d="M676.67 70.7338C685.078 70.7338 691.895 64.2262 691.895 56.1986C691.895 48.1711 685.078 41.6634 676.67 41.6634C668.261 41.6634 661.444 48.1711 661.444 56.1986C661.444 64.2262 668.261 70.7338 676.67 70.7338Z" fill="#3B7989"/>
<path opacity="0.1" d="M11.2627 82.1038C17.4829 82.1038 22.5254 77.2901 22.5254 71.352C22.5254 65.4139 17.4829 60.6001 11.2627 60.6001C5.04248 60.6001 0 65.4139 0 71.352C0 77.2901 5.04248 82.1038 11.2627 82.1038Z" fill="#3B7989"/>
<path opacity="0.1" d="M125.297 21.6247C131.518 21.6247 136.56 16.8109 136.56 10.8728C136.56 4.93473 131.518 0.120956 125.297 0.120956C119.077 0.120956 114.035 4.93473 114.035 10.8728C114.035 16.8109 119.077 21.6247 125.297 21.6247Z" fill="#3B7989"/>
<path opacity="0.1" d="M587.068 22.9686C593.288 22.9686 598.331 18.1549 598.331 12.2168C598.331 6.2787 593.288 1.46494 587.068 1.46494C580.848 1.46494 575.805 6.2787 575.805 12.2168C575.805 18.1549 580.848 22.9686 587.068 22.9686Z" fill="#3B7989"/>
<path d="M626.22 434.375C626.22 434.375 629.035 437.896 624.918 443.212C620.8 448.527 617.4 453.009 618.772 456.322C618.772 456.322 624.988 446.457 630.035 446.316C635.082 446.175 631.781 440.315 626.22 434.375Z" fill="#FC6681"/>
<path opacity="0.1" d="M626.22 434.375C626.465 434.716 626.657 435.09 626.79 435.484C631.717 441.021 634.364 446.188 629.606 446.316C625.185 446.437 619.884 453.984 618.61 455.892C618.652 456.038 618.704 456.182 618.765 456.322C618.765 456.322 624.981 446.457 630.028 446.316C635.075 446.175 631.781 440.315 626.22 434.375Z" fill="black"/>
<path d="M631.457 438.864C631.457 440.1 631.309 441.108 631.133 441.108C630.957 441.108 630.81 440.1 630.81 438.864C630.81 437.627 630.993 438.192 631.169 438.192C631.345 438.192 631.457 437.621 631.457 438.864Z" fill="#FFD037"/>
<path d="M633.259 440.342C632.119 440.934 631.147 441.29 631.035 441.142C630.922 440.994 631.809 440.389 632.942 439.798C634.076 439.206 633.646 439.637 633.724 439.798C633.801 439.959 634.399 439.751 633.259 440.342Z" fill="#FFD037"/>
<path d="M611.325 434.375C611.325 434.375 608.509 437.896 612.627 443.212C616.745 448.527 620.145 453.009 618.773 456.322C618.773 456.322 612.55 446.457 607.51 446.316C602.47 446.175 605.757 440.315 611.325 434.375Z" fill="#FC6681"/>
<path opacity="0.1" d="M611.325 434.375C611.079 434.717 610.885 435.09 610.748 435.484C605.82 441.021 603.181 446.188 607.932 446.316C612.353 446.437 617.66 453.984 618.927 455.892C618.885 456.033 618.836 456.181 618.779 456.322C618.779 456.322 612.557 446.457 607.517 446.316C602.477 446.175 605.757 440.315 611.325 434.375Z" fill="black"/>
<path d="M606.081 438.864C606.081 440.1 606.229 441.108 606.412 441.108C606.595 441.108 606.736 440.1 606.736 438.864C606.736 437.627 606.553 438.192 606.37 438.192C606.187 438.192 606.081 437.621 606.081 438.864Z" fill="#FFD037"/>
<path d="M604.286 440.342C605.426 440.934 606.398 441.29 606.503 441.142C606.609 440.994 605.736 440.389 604.596 439.798C603.455 439.206 603.892 439.637 603.821 439.798C603.751 439.959 603.146 439.751 604.286 440.342Z" fill="#FFD037"/>
<path d="M606.982 455.865C606.982 455.865 614.866 455.63 617.238 454.017C619.61 452.404 629.366 450.476 629.958 453.063C630.549 455.65 641.798 465.945 632.9 466.012C624.003 466.079 612.219 464.668 609.854 463.324C607.489 461.98 606.982 455.865 606.982 455.865Z" fill="#A8A8A8"/>
<path opacity="0.2" d="M633.062 465.112C624.157 465.179 612.381 463.768 610.009 462.424C608.207 461.375 607.482 457.606 607.242 455.865H606.982C606.982 455.865 607.482 461.913 609.854 463.311C612.226 464.709 624.003 466.079 632.9 465.999C635.469 465.999 636.356 465.105 636.307 463.815C635.955 464.608 634.97 465.098 633.062 465.112Z" fill="black"/>
<path opacity="0.7" d="M222.755 84.6507C219.831 84.6507 216.973 85.4783 214.542 87.029C212.111 88.5796 210.217 90.7836 209.098 93.3622C207.979 95.9408 207.686 98.7782 208.257 101.516C208.827 104.253 210.235 106.768 212.302 108.741C214.37 110.715 217.004 112.059 219.871 112.603C222.739 113.148 225.711 112.868 228.412 111.8C231.113 110.732 233.422 108.923 235.046 106.603C236.67 104.282 237.537 101.554 237.537 98.7625C237.537 95.0198 235.98 91.4304 233.208 88.784C230.435 86.1375 226.675 84.6507 222.755 84.6507ZM222.755 87.3857C225.122 87.3857 227.435 88.0557 229.403 89.311C231.371 90.5662 232.905 92.3504 233.811 94.4378C234.716 96.5253 234.953 98.8222 234.492 101.038C234.03 103.254 232.89 105.29 231.217 106.887C229.543 108.485 227.411 109.573 225.09 110.014C222.768 110.455 220.362 110.228 218.176 109.364C215.989 108.499 214.12 107.035 212.805 105.156C211.49 103.278 210.788 101.069 210.788 98.8096C210.788 95.7798 212.049 92.8741 214.293 90.7317C216.537 88.5893 219.581 87.3857 222.755 87.3857ZM231.125 94.8112L229.78 93.5143C229.714 93.4492 229.636 93.3975 229.549 93.3622C229.461 93.3268 229.368 93.3086 229.273 93.3086C229.179 93.3086 229.085 93.3268 228.998 93.3622C228.911 93.3975 228.832 93.4492 228.766 93.5143L220.319 101.504L216.758 98.0502C216.692 97.9852 216.613 97.9334 216.526 97.8981C216.439 97.8628 216.345 97.8446 216.251 97.8446C216.156 97.8446 216.062 97.8628 215.975 97.8981C215.888 97.9334 215.81 97.9852 215.744 98.0502L214.392 99.3337C214.324 99.3964 214.27 99.4715 214.233 99.5547C214.196 99.6378 214.177 99.7272 214.177 99.8175C214.177 99.9079 214.196 99.9973 214.233 100.08C214.27 100.164 214.324 100.239 214.392 100.301L219.813 105.516C219.878 105.581 219.957 105.633 220.044 105.668C220.131 105.703 220.225 105.722 220.319 105.722C220.414 105.722 220.508 105.703 220.595 105.668C220.682 105.633 220.761 105.581 220.826 105.516L231.125 95.7587C231.193 95.696 231.247 95.6209 231.284 95.5377C231.321 95.4546 231.34 95.3652 231.34 95.2749C231.34 95.1845 231.321 95.0952 231.284 95.012C231.247 94.9289 231.193 94.8537 231.125 94.791V94.8112Z" fill="#3ACC6C"/>
<path opacity="0.7" d="M59.1079 156.097C56.2618 156.728 53.6754 158.15 51.6755 160.184C49.6756 162.217 48.3519 164.771 47.8715 167.523C47.3912 170.274 47.7758 173.1 48.9767 175.643C50.1777 178.186 52.1411 180.332 54.619 181.81C57.0969 183.288 59.9781 184.032 62.8987 183.948C65.8193 183.864 68.6483 182.955 71.0283 181.337C73.4083 179.719 75.2325 177.464 76.2706 174.856C77.3087 172.249 77.5141 169.406 76.8608 166.687C76.426 164.878 75.6214 163.168 74.4933 161.656C73.3651 160.144 71.9355 158.859 70.2864 157.875C68.6373 156.891 66.801 156.228 64.8828 155.923C62.9646 155.618 61.0022 155.677 59.1079 156.097ZM59.7555 158.785C62.0627 158.271 64.4778 158.422 66.6948 159.22C68.9118 160.017 70.8309 161.425 72.209 163.265C73.5871 165.105 74.3621 167.293 74.4358 169.554C74.5096 171.815 73.8787 174.045 72.6232 175.963C71.3677 177.881 69.5441 179.401 67.3834 180.328C65.2227 181.256 62.8221 181.551 60.4859 181.175C58.1497 180.799 55.9829 179.769 54.2602 178.216C52.5374 176.664 51.3362 174.658 50.8087 172.453C50.1043 169.508 50.6502 166.417 52.3268 163.856C54.0034 161.294 56.6744 159.471 59.7555 158.785ZM69.6597 164.228L68.0407 163.233C67.9616 163.184 67.873 163.151 67.7802 163.135C67.6874 163.119 67.5922 163.122 67.5002 163.142C67.4083 163.162 67.3216 163.199 67.2451 163.252C67.1687 163.305 67.1041 163.371 67.0552 163.448L60.7199 173.044L56.433 170.457C56.354 170.408 56.2654 170.375 56.1726 170.359C56.0797 170.343 55.9845 170.346 55.8926 170.366C55.8007 170.386 55.7139 170.423 55.6375 170.476C55.561 170.528 55.4964 170.595 55.4476 170.672L54.4269 172.218C54.3755 172.293 54.3405 172.378 54.324 172.466C54.3075 172.555 54.3099 172.646 54.3309 172.734C54.3519 172.821 54.3912 172.904 54.4463 172.977C54.5015 173.05 54.5715 173.112 54.6521 173.159L61.1563 177.076C61.2356 177.126 61.3248 177.161 61.4184 177.177C61.5119 177.193 61.608 177.191 61.7008 177.171C61.7935 177.151 61.8811 177.113 61.9581 177.06C62.0351 177.007 62.1 176.939 62.1489 176.861L69.892 165.148C69.9437 165.073 69.9791 164.989 69.9961 164.901C70.0131 164.813 70.0114 164.722 69.991 164.634C69.9707 164.546 69.9321 164.463 69.8776 164.39C69.8231 164.317 69.7538 164.255 69.6738 164.208L69.6597 164.228Z" fill="#3ACC6C"/>
<path opacity="0.7" d="M438.203 86.6935C435.279 86.6935 432.421 87.5212 429.991 89.0718C427.56 90.6224 425.665 92.8264 424.546 95.405C423.427 97.9836 423.135 100.821 423.705 103.558C424.275 106.296 425.683 108.81 427.751 110.784C429.818 112.757 432.452 114.101 435.319 114.646C438.187 115.191 441.159 114.911 443.86 113.843C446.561 112.775 448.87 110.966 450.494 108.645C452.118 106.325 452.985 103.596 452.985 100.805C452.985 97.0627 451.428 93.4733 448.656 90.8268C445.884 88.1803 442.124 86.6935 438.203 86.6935ZM438.203 89.4285C440.57 89.4285 442.884 90.0985 444.851 91.3538C446.819 92.6091 448.353 94.3932 449.259 96.4807C450.165 98.5681 450.402 100.865 449.94 103.081C449.478 105.297 448.338 107.333 446.665 108.93C444.991 110.528 442.859 111.616 440.538 112.057C438.216 112.498 435.81 112.271 433.624 111.407C431.437 110.542 429.568 109.078 428.253 107.199C426.938 105.321 426.237 103.112 426.237 100.852C426.237 97.8226 427.497 94.9169 429.742 92.7745C431.986 90.6321 435.029 89.4285 438.203 89.4285ZM446.573 96.854L445.228 95.5571C445.163 95.4921 445.084 95.4403 444.997 95.405C444.91 95.3697 444.816 95.3515 444.721 95.3515C444.627 95.3515 444.533 95.3697 444.446 95.405C444.359 95.4403 444.28 95.4921 444.215 95.5571L435.768 103.547L432.199 100.113C432.133 100.048 432.054 99.9964 431.967 99.9611C431.88 99.9258 431.787 99.9076 431.692 99.9076C431.597 99.9076 431.504 99.9258 431.417 99.9611C431.329 99.9964 431.251 100.048 431.185 100.113L429.841 101.41C429.772 101.473 429.718 101.548 429.681 101.631C429.644 101.714 429.625 101.804 429.625 101.894C429.625 101.984 429.644 102.074 429.681 102.157C429.718 102.24 429.772 102.315 429.841 102.378L435.261 107.592C435.326 107.657 435.405 107.709 435.492 107.745C435.579 107.78 435.673 107.798 435.768 107.798C435.862 107.798 435.956 107.78 436.043 107.745C436.13 107.709 436.209 107.657 436.274 107.592L446.573 97.8351C446.641 97.7725 446.695 97.6973 446.732 97.6142C446.769 97.531 446.788 97.4416 446.788 97.3513C446.788 97.261 446.769 97.1716 446.732 97.0885C446.695 97.0053 446.641 96.9302 446.573 96.8675V96.854Z" fill="#3ACC6C"/>
<path opacity="0.7" d="M607.798 156.386C604.884 156.17 601.968 156.783 599.42 158.149C596.871 159.515 594.803 161.571 593.478 164.058C592.153 166.545 591.63 169.351 591.976 172.122C592.321 174.893 593.519 177.504 595.418 179.625C597.317 181.746 599.832 183.281 602.645 184.038C605.459 184.795 608.444 184.738 611.224 183.876C614.003 183.014 616.453 181.384 618.262 179.193C620.072 177.002 621.161 174.348 621.391 171.566C621.544 169.717 621.313 167.857 620.713 166.093C620.112 164.329 619.153 162.696 617.891 161.286C616.628 159.876 615.087 158.718 613.355 157.877C611.624 157.036 609.735 156.529 607.798 156.386ZM607.573 159.107C609.935 159.277 612.192 160.112 614.057 161.507C615.922 162.902 617.311 164.794 618.048 166.943C618.786 169.092 618.838 171.402 618.199 173.58C617.56 175.758 616.259 177.706 614.459 179.177C612.659 180.648 610.443 181.576 608.09 181.843C605.738 182.11 603.355 181.705 601.244 180.678C599.133 179.651 597.389 178.05 596.232 176.076C595.076 174.102 594.559 171.845 594.748 169.59C594.868 168.098 595.295 166.642 596.005 165.308C596.714 163.973 597.693 162.784 598.884 161.811C600.075 160.837 601.456 160.097 602.947 159.633C604.437 159.17 606.01 158.991 607.573 159.107ZM615.316 167.131L614.077 165.74C614.017 165.67 613.944 165.613 613.86 165.571C613.777 165.529 613.686 165.504 613.592 165.496C613.498 165.489 613.403 165.499 613.314 165.527C613.224 165.555 613.142 165.6 613.071 165.659L604.011 173.004L600.731 169.315C600.671 169.244 600.597 169.186 600.513 169.144C600.429 169.101 600.337 169.075 600.242 169.068C600.147 169.06 600.052 169.071 599.962 169.1C599.872 169.128 599.788 169.174 599.717 169.234L598.26 170.417C598.188 170.474 598.128 170.545 598.085 170.625C598.042 170.705 598.016 170.792 598.009 170.882C598.001 170.971 598.013 171.061 598.043 171.147C598.073 171.232 598.12 171.31 598.183 171.378L603.159 176.976C603.219 177.045 603.293 177.102 603.376 177.144C603.46 177.186 603.551 177.212 603.645 177.219C603.739 177.227 603.833 177.216 603.923 177.188C604.012 177.16 604.095 177.115 604.166 177.056L615.232 168.092C615.304 168.035 615.364 167.964 615.408 167.885C615.452 167.805 615.479 167.718 615.487 167.628C615.494 167.539 615.483 167.449 615.454 167.363C615.425 167.278 615.378 167.199 615.316 167.131Z" fill="#3ACC6C"/>
</g>
<defs>
<linearGradient id="paint0_linear" x1="517.492" y1="386.556" x2="517.492" y2="196.625" gradientUnits="userSpaceOnUse">
<stop stop-color="#808080" stop-opacity="0.25"/>
<stop offset="0.54" stop-color="#808080" stop-opacity="0.12"/>
<stop offset="1" stop-color="#808080" stop-opacity="0.1"/>
</linearGradient>
<clipPath id="clip0">
<rect width="743" height="520" fill="white"/>
</clipPath>
</defs>
</svg>
